<?xml version="1.0" standalone="no"?>
<!DOCTYPE svg PUBLIC "-//W3C//DTD SVG 20010904//EN"
 "http://www.w3.org/TR/2001/REC-SVG-20010904/DTD/svg10.dtd">
<svg version="1.0" xmlns="http://www.w3.org/2000/svg"
 width="1024.000000pt" height="1024.000000pt" viewBox="0 0 1024.000000 1024.000000"
 preserveAspectRatio="xMidYMid meet">

<g transform="translate(0.000000,1024.000000) scale(0.100000,-0.100000)"
fill="#000000" stroke="none">
<path d="M5841 7389 c-302 -27 -640 -145 -891 -311 -182 -121 -362 -289 -495
-463 l-58 -76 598 -1347 c329 -741 602 -1351 606 -1355 6 -7 273 -119 417
-175 53 -20 58 13 -52 -327 -46 -143 -82 -262 -80 -263 2 -4 601 308 1017 530
268 142 386 222 535 363 511 482 729 1176 587 1868 -122 597 -520 1096 -1090
1368 -340 162 -696 223 -1094 188z"/>
<path d="M2453 7243 c3 -10 67 -162 142 -338 75 -176 156 -367 180 -425 44
-106 85 -203 365 -865 175 -413 706 -1651 933 -2175 l153 -355 661 -3 662 -2
-90 207 c-50 115 -163 370 -251 568 -177 396 -163 365 -408 925 -174 399 -360
829 -585 1350 -307 712 -466 1077 -478 1100 l-13 25 -638 3 c-605 2 -638 1
-633 -15z"/>
</g>
</svg>
