<?xml version="1.0" encoding="utf-8"?>
<!-- Generator: Adobe Illustrator 30.2.1, SVG Export Plug-In . SVG Version: 9.03 Build 0)  -->
<svg version="1.0" id="Layer_1" xmlns="http://www.w3.org/2000/svg" xmlns:xlink="http://www.w3.org/1999/xlink" x="0px" y="0px"
	 viewBox="0 0 1024 1024" style="enable-background:new 0 0 1024 1024;" xml:space="preserve">
<style type="text/css">
	.st0{fill:#52ADE4;}
</style>
<path class="st0" d="M458.94,919.18C344.77,950.44,314.5,810.14,280.69,707.84L147.38,304.4c-13.85-41.91-1.75-81.94,32.7-106.62
	c9.11-6.53,31.13-13.81,41.28-12.4s28.32,15.36,31.99,25.8l109.99,312.56l56.28,149.9c12.02-0.51,32.75-11.59,36.81-22.3
	c51.91-136.88,109.11-265.07,184.31-389.46c29.77-49.25,107.87-184.78,174.95-158.04c36.68,14.62,76.91,86.72,64.13,103.96
	l-67.49,91.07c-94.3,127.25-113.15,161.67-182.53,305.15c-28.91,59.8-51.95,120.12-75.52,182.57l-18.2,48.23
	C521,874.78,499.87,907.98,458.94,919.18z"/>
</svg>
